<svg viewBox="0 0 512 448" fill="none" xmlns="http://www.w3.org/2000/svg">
<path d="M256 0C114.6 0 0 93.1 0 208C0 257.6 21.4 303 57 338.7C44.5 389.1 2.7 434 2.2 434.5C0 436.8 -0.6 440.2 0.7 443.2C2 446.2 4.8 448 8 448C74.3 448 124 416.2 148.6 396.6C181.3 408.9 217.6 416 256 416C397.4 416 512 322.9 512 208C512 93.1 397.4 0 256 0ZM128 240C110.3 240 96 225.7 96 208C96 190.3 110.3 176 128 176C145.7 176 160 190.3 160 208C160 225.7 145.7 240 128 240ZM256 240C238.3 240 224 225.7 224 208C224 190.3 238.3 176 256 176C273.7 176 288 190.3 288 208C288 225.7 273.7 240 256 240ZM384 240C366.3 240 352 225.7 352 208C352 190.3 366.3 176 384 176C401.7 176 416 190.3 416 208C416 225.7 401.7 240 384 240Z" fill="#2C3E50"/>
</svg>
