<svg viewBox="0 0 612 585" fill="none" xmlns="http://www.w3.org/2000/svg">
<path fill-rule="evenodd" clip-rule="evenodd" d="M383.021 186.089L307.827 17.3971C307.569 16.8187 307.303 16.6103 307.121 16.4983C306.872 16.3448 306.485 16.2114 306 16.2114C305.515 16.2114 305.128 16.3448 304.879 16.4983C304.697 16.6104 304.431 16.8187 304.173 17.3972L228.979 186.089C224.038 197.174 213.562 204.785 201.493 206.059L17.8211 225.444C17.1912 225.511 16.9109 225.699 16.7482 225.837C16.5253 226.027 16.2787 226.354 16.1289 226.815C15.9791 227.276 15.9862 227.686 16.0552 227.97C16.1056 228.178 16.2216 228.495 16.6921 228.919L153.891 352.562C162.907 360.686 166.908 373.001 164.39 384.873L126.069 565.546C125.937 566.166 126.03 566.49 126.111 566.688C126.222 566.958 126.458 567.294 126.85 567.579C127.242 567.864 127.634 567.984 127.926 568.006C128.138 568.022 128.476 568.01 129.025 567.693L289.013 475.417C299.526 469.353 312.474 469.353 322.987 475.417L482.975 567.693C483.524 568.01 483.862 568.022 484.074 568.006C484.366 567.984 484.758 567.864 485.15 567.579C485.542 567.294 485.778 566.958 485.889 566.688C485.97 566.49 486.062 566.166 485.931 565.546L447.61 384.873C445.092 373.001 449.093 360.686 458.109 352.562L595.308 228.919C595.778 228.495 595.894 228.178 595.945 227.97C596.014 227.686 596.021 227.276 595.871 226.815C595.721 226.354 595.475 226.027 595.252 225.837C595.089 225.699 594.809 225.511 594.179 225.444L410.507 206.059C398.438 204.785 387.962 197.174 383.021 186.089ZM322.441 10.883C316.098 -3.34579 295.902 -3.34575 289.559 10.883L214.365 179.575C211.749 185.443 206.203 189.473 199.814 190.147L16.1417 209.533C0.649368 211.168 -5.59161 230.376 5.98084 240.805L143.18 364.447C147.953 368.749 150.071 375.268 148.738 381.553L110.417 562.226C107.185 577.466 123.524 589.337 137.019 581.553L297.007 489.277C302.573 486.067 309.427 486.067 314.993 489.277L474.981 581.553C488.476 589.337 504.815 577.466 501.583 562.226L463.262 381.553C461.929 375.268 464.047 368.749 468.82 364.447L606.019 240.805C617.592 230.376 611.351 211.168 595.858 209.533L412.186 190.147C405.797 189.473 400.251 185.443 397.635 179.575L322.441 10.883Z" fill="#2C3E50"/>
</svg>
