<svg viewBox="0 0 612 585" fill="none" xmlns="http://www.w3.org/2000/svg">
<path d="M289.559 10.883C295.902 -3.34575 316.098 -3.34579 322.441 10.883L397.635 179.575C400.251 185.443 405.797 189.473 412.186 190.147L595.858 209.533C611.351 211.168 617.592 230.376 606.019 240.805L468.82 364.447C464.047 368.749 461.929 375.268 463.262 381.553L501.583 562.226C504.815 577.466 488.476 589.337 474.981 581.553L314.993 489.277C309.427 486.067 302.573 486.067 297.007 489.277L137.019 581.553C123.524 589.337 107.185 577.466 110.417 562.226L148.738 381.553C150.071 375.268 147.953 368.749 143.18 364.447L5.98083 240.805C-5.5916 230.376 0.649369 211.168 16.1417 209.533L199.814 190.147C206.203 189.473 211.749 185.443 214.365 179.575L289.559 10.883Z" fill="#2C3E50"/>
</svg>
